<?xml version="1.0" standalone="no"?>
<!DOCTYPE svg PUBLIC "-//W3C//DTD SVG 20010904//EN"
 "http://www.w3.org/TR/2001/REC-SVG-20010904/DTD/svg10.dtd">
<svg version="1.0" xmlns="http://www.w3.org/2000/svg"
 width="1280.000000pt" height="860.000000pt" viewBox="0 0 1280.000000 860.000000"
 preserveAspectRatio="xMidYMid meet">
<g transform="translate(0.000000,860.000000) scale(0.100000,-0.100000)"
fill="#000000" stroke="none">
<path d="M4436 8566 l-36 -33 0 -3350 c0 -2735 2 -3352 13 -3367 12 -17 22
-17 218 8 354 44 724 77 1059 94 l135 7 5 630 5 630 27 68 c70 175 198 294
373 349 90 28 232 30 320 4 145 -43 278 -151 347 -282 68 -128 68 -130 68
-797 0 -469 3 -598 13 -601 6 -2 111 -9 232 -15 276 -15 567 -41 899 -82 251
-31 259 -32 273 -14 11 16 13 562 11 3373 l-3 3354 -35 29 -34 29 -1927 0
-1928 0 -35 -34z m962 -326 c31 -29 33 -59 30 -328 l-3 -244 -28 -24 -28 -24
-264 0 -264 0 -28 24 -28 24 -3 253 c-2 140 0 264 3 277 3 12 14 31 25 42 19
19 35 20 293 20 259 0 274 -1 295 -20z m1297 -5 l25 -24 0 -271 0 -271 -25
-24 -24 -25 -271 0 -271 0 -24 25 -25 24 0 271 0 271 25 24 24 25 271 0 271 0
24 -25z m1296 -1 l24 -26 0 -270 0 -270 -28 -24 -28 -24 -265 0 -266 0 -29 29
-29 29 0 257 c0 206 3 262 15 285 8 15 20 30 27 33 7 3 135 6 284 6 l271 1 24
-26z m-2590 -1080 l24 -26 0 -270 0 -270 -28 -24 -28 -24 -265 0 -266 0 -29
29 -29 29 0 257 c0 260 3 284 39 312 12 9 90 12 287 13 l271 0 24 -26z m1294
1 l25 -24 0 -271 0 -271 -25 -24 -24 -25 -271 0 -271 0 -24 25 -25 24 0 271 0
271 25 24 24 25 271 0 271 0 24 -25z m1296 -1 l24 -26 0 -270 0 -270 -28 -24
-28 -24 -267 0 c-194 1 -271 4 -283 13 -36 27 -39 52 -39 307 0 257 6 299 42
313 7 3 135 6 284 6 l271 1 24 -26z m-2594 -1078 l28 -24 0 -270 0 -270 -24
-26 -24 -26 -273 0 -272 0 -26 31 -26 31 0 258 0 258 26 31 26 31 268 0 269 0
28 -24z m1298 -1 l25 -24 0 -271 0 -271 -25 -24 -24 -25 -271 0 -271 0 -24 25
-25 24 0 271 0 271 25 24 24 25 271 0 271 0 24 -25z m1292 1 l28 -24 0 -272 0
-272 -28 -24 -28 -24 -267 0 c-194 1 -271 4 -283 13 -36 27 -39 52 -39 307 0
255 3 280 39 307 12 9 89 12 283 13 l267 0 28 -24z m-2590 -1080 l28 -24 0
-270 0 -270 -24 -26 -24 -26 -271 0 c-197 1 -275 4 -287 13 -36 28 -39 52 -39
312 l0 257 29 29 29 29 266 0 265 0 28 -24z m1298 -1 l25 -24 0 -271 0 -271
-25 -24 -24 -25 -271 0 -271 0 -24 25 -25 24 0 271 0 271 25 24 24 25 271 0
271 0 24 -25z m1292 1 l28 -24 0 -270 0 -270 -24 -26 -24 -26 -268 0 c-147 0
-275 3 -284 6 -40 16 -45 52 -45 313 0 261 4 290 44 309 13 7 124 11 283 11
l262 1 28 -24z m-2590 -1080 l28 -24 3 -244 c3 -269 1 -299 -30 -328 -21 -19
-36 -20 -295 -20 -258 0 -274 1 -293 20 -11 11 -22 30 -25 42 -3 13 -5 137 -3
277 l3 253 28 24 28 24 264 0 264 0 28 -24z m2590 0 l28 -24 0 -270 0 -270
-24 -26 -24 -26 -268 0 c-147 0 -275 3 -284 6 -40 16 -45 52 -45 319 l0 257
29 29 29 29 266 0 265 0 28 -24z m-2588 -1045 c29 -29 32 -64 29 -329 l-3
-244 -28 -24 -28 -24 -264 0 -264 0 -28 24 -28 24 -3 253 c-2 140 0 264 3 277
3 12 14 31 25 42 19 19 35 20 295 20 259 0 276 -1 294 -19z m2589 -1 c31 -29
33 -59 30 -328 l-3 -244 -28 -24 -28 -24 -265 0 -266 0 -29 29 -29 29 0 257
c0 206 3 262 15 285 8 15 20 30 27 33 7 3 135 6 284 6 257 1 271 0 292 -19z"/>
<path d="M3390 5519 c-292 -52 -546 -270 -635 -546 -15 -48 -29 -93 -31 -100
-2 -7 -36 -28 -76 -48 -180 -87 -305 -238 -355 -428 -16 -59 -23 -260 -11
-273 3 -3 43 3 89 12 161 32 338 -1 472 -90 31 -21 85 -69 120 -106 l62 -68
96 0 c160 1 285 -49 394 -158 68 -69 125 -172 145 -265 17 -78 8 -220 -19
-294 -11 -33 -41 -90 -66 -126 l-46 -67 7 -288 c7 -299 -4 -577 -32 -809 -29
-249 -29 -239 -11 -232 9 3 133 29 274 57 142 28 269 53 281 56 19 4 23 10 18
27 -14 59 -67 462 -82 627 -19 215 -24 664 -7 681 8 8 22 7 49 0 22 -6 79 -14
127 -18 71 -5 91 -3 98 8 5 8 9 457 9 1037 0 1164 9 1049 -94 1155 -109 112
-258 197 -414 238 -89 24 -279 33 -362 18z"/>
<path d="M2437 3945 c-165 -45 -292 -166 -346 -328 -20 -58 -24 -64 -76 -91
-73 -38 -157 -130 -186 -203 -18 -45 -23 -78 -24 -148 0 -81 4 -97 32 -157 39
-83 109 -155 184 -191 l56 -26 7 -59 c13 -118 93 -235 196 -287 62 -31 101
-38 197 -37 l81 2 8 -78 c10 -113 -3 -518 -21 -652 -9 -63 -24 -154 -34 -202
-11 -55 -14 -88 -8 -88 6 0 80 20 166 44 86 24 175 49 199 56 24 6 42 17 42
25 0 8 -11 78 -25 157 -45 257 -75 626 -61 739 l7 54 122 0 c112 0 127 2 180
27 80 38 160 117 200 197 30 61 32 73 34 178 l2 113 36 42 c143 168 132 422
-26 580 -85 85 -225 135 -339 121 l-50 -6 -64 70 c-71 77 -147 123 -241 148
-71 18 -182 18 -248 0z"/>
<path d="M8900 3511 c-36 -53 -40 -66 -40 -119 0 -70 -3 -72 -96 -72 l-64 0 0
-80 0 -79 78 -3 77 -3 5 -725 5 -724 60 -13 c33 -7 68 -12 78 -13 16 0 17 41
17 728 0 553 3 731 12 740 17 17 279 17 296 0 15 -15 16 -122 2 -149 -9 -15
-22 -19 -63 -19 -29 0 -58 -5 -65 -12 -16 -16 -17 -600 -2 -629 10 -18 27 -19
564 -19 456 0 556 2 565 14 8 9 11 104 9 327 l-3 314 -65 5 -65 5 0 85 0 85
96 5 c86 5 100 8 152 40 31 19 57 37 57 40 0 3 -26 22 -58 43 l-59 37 -674 0
c-512 0 -678 3 -687 12 -7 7 -12 37 -12 68 0 47 -6 65 -36 113 -19 31 -37 57
-39 57 -3 0 -22 -27 -45 -59z m1278 -435 c2 -57 -1 -82 -10 -87 -22 -14 -792
-11 -806 3 -16 16 -16 140 0 156 9 9 110 12 413 10 l400 -3 3 -79z m-291 -222
c19 -12 23 -23 21 -47 -3 -34 -3 -34 -79 -21 -42 7 -60 -10 -62 -58 -2 -32 -1
-33 40 -36 49 -4 71 -29 53 -61 -7 -14 -23 -21 -53 -23 l-42 -3 -3 -47 -3 -48
61 0 c34 0 70 -5 81 -10 24 -13 26 -65 3 -74 -30 -12 -269 -7 -282 6 -21 21
-14 57 13 70 21 9 25 18 25 55 0 37 -4 45 -25 53 -38 14 -33 68 8 83 11 4 17
17 17 36 0 59 30 112 74 133 47 21 114 18 153 -8z"/>
<path d="M5785 1709 c-1855 -67 -3684 -497 -5442 -1277 -257 -115 -312 -143
-331 -174 -14 -24 -14 -30 -1 -54 7 -15 29 -33 47 -41 32 -13 39 -11 265 91
699 314 1345 552 2039 752 2414 694 4893 742 7298 139 985 -246 2047 -639
2913 -1077 75 -38 144 -68 153 -66 9 2 31 20 47 41 51 62 39 73 -229 207 -417
210 -959 440 -1479 628 -1689 610 -3502 896 -5280 831z"/>
</g>
</svg>
